<svg xmlns="http://www.w3.org/2000/svg" width="101" height="100" fill="none" viewBox="0 0 101 100"><path fill="#ff3838" d="M49.166 1.185c.187-1.58 2.48-1.58 2.668 0l1.573 13.259c2.032 17.12 15.53 30.617 32.65 32.649l13.258 1.573c1.58.187 1.58 2.48 0 2.668l-13.259 1.573c-17.12 2.032-30.617 15.53-32.648 32.65l-1.574 13.258c-.187 1.58-2.48 1.58-2.668 0l-1.573-13.259c-2.032-17.12-15.53-30.617-32.65-32.648L1.686 51.334c-1.58-.187-1.58-2.48 0-2.668l13.259-1.573c17.12-2.032 30.617-15.53 32.649-32.65z"/></svg>